<svg xmlns="http://www.w3.org/2000/svg" width="169" height="168"><g fill="#fff"><path d="M84.5 155.25a22.43 22.43 0 0 1-15.863-6.544L19.598 99.957A22.427 22.427 0 0 1 12.961 84a22.427 22.427 0 0 1 6.637-15.957l49.04-48.75A22.43 22.43 0 0 1 84.5 12.75a22.429 22.429 0 0 1 15.863 6.544l49.039 48.749A22.427 22.427 0 0 1 156.039 84a22.427 22.427 0 0 1-6.637 15.957l-49.04 48.75A22.43 22.43 0 0 1 84.5 155.25Z"/><path d="M84.5 15.25a19.875 19.875 0 0 0-14.1 5.817L21.36 69.816A19.863 19.863 0 0 0 15.46 84a19.863 19.863 0 0 0 5.9 14.184l49.04 48.75a19.875 19.875 0 0 0 14.1 5.815c5.32 0 10.327-2.065 14.1-5.816l49.04-48.749A19.863 19.863 0 0 0 153.54 84a19.863 19.863 0 0 0-5.9-14.184L98.6 21.066a19.875 19.875 0 0 0-14.1-5.815m0-5a24.92 24.92 0 0 1 17.625 7.27l49.04 48.749c9.833 9.775 9.833 25.685 0 35.46l-49.04 48.75c-9.75 9.692-25.5 9.692-35.25 0l-49.04-48.75c-9.833-9.775-9.833-25.685 0-35.46l49.04-48.75A24.923 24.923 0 0 1 84.5 10.25Z" fill="#df3c3c"/></g><path d="M109.742 106.619h-5.735V76.227L85.145 95.288c-1.093-1-1.693-1.5-2.246-2.053-7-6.995-13.949-14.049-21.033-20.96-1.808-1.764-2.9-3.515-2.539-6.11a37.276 37.276 0 0 0 .035-4.712l25.064 25.263 25.317-25.508ZM65.306 92.218v14.376h-5.823V77.96l28.716 28.791c-2.085 0-4.413.131-6.713-.069a4.517 4.517 0 0 1-2.355-1.468c-4.416-4.4-8.777-8.848-13.156-13.282Z" fill="#df3c3c"/></svg>